<svg xmlns="http://www.w3.org/2000/svg" xmlns:xlink="http://www.w3.org/1999/xlink" version="1.1" x="0px" y="0px" viewBox="0 0 40 50" enable-background="new 0 0 40 40" xml:space="preserve"><g><path d="M37.856,8.501"/></g><g><path fill="#000000" d="M7,18.667"/></g><path d="M38.494,7c0-0.196-0.115-0.375-0.294-0.456c-0.179-0.079-0.389-0.049-0.536,0.081  c-11.383,10.013-15.595,13.776-17.17,15.236v-1.643l2.01-1.851c0.103-0.095,0.161-0.229,0.161-0.368v-2.005l-2.506,2.193  c-0.047,0.041-0.106,0.062-0.165,0.062c-0.069,0-0.139-0.029-0.188-0.085c-0.091-0.104-0.081-0.263,0.023-0.354l2.835-2.481v-1.335  l-2.506,2.193c-0.047,0.041-0.106,0.062-0.165,0.062c-0.069,0-0.139-0.029-0.188-0.085c-0.091-0.104-0.081-0.263,0.023-0.354  l2.835-2.481v-1.335l-2.506,2.193c-0.047,0.041-0.106,0.062-0.165,0.062c-0.069,0-0.139-0.029-0.188-0.085  c-0.091-0.104-0.081-0.263,0.023-0.354l2.835-2.481V9.995l-2.506,2.193c-0.047,0.041-0.106,0.062-0.165,0.062  c-0.069,0-0.139-0.029-0.188-0.085c-0.091-0.104-0.081-0.263,0.023-0.354l2.835-2.481V6c0-0.194-0.113-0.371-0.289-0.453  c-0.176-0.081-0.385-0.055-0.533,0.07L11.303,14.5H1.994c-0.276,0-0.5,0.224-0.5,0.5v8v7c0,0.276,0.224,0.5,0.5,0.5h18  c0.221,0,0.403-0.146,0.469-0.345c0.027-0.062,0.043-0.129,0.043-0.2v-5.267l0.988-0.756V30c0,0.275,0.223,0.499,0.499,0.5  c0,0,0,0,0.001,0c0.275,0,0.499-0.223,0.5-0.498l0.026-6.883l1.669-1.327l-0.028,9.206c0,0.134,0.052,0.261,0.146,0.354  c0.094,0.095,0.221,0.147,0.354,0.147h0.333c0.276,0,0.5-0.224,0.5-0.5V20.679l2.095-1.705V32c0,0.276,0.224,0.5,0.5,0.5h0.898  c0.276,0,0.5-0.224,0.5-0.5V17.599l4.936-3.922V34c0,0.276,0.224,0.5,0.5,0.5h3.083c0.133,0,0.26-0.053,0.354-0.146  s0.146-0.221,0.146-0.354L38.494,7z M10.494,21c0,0.276-0.224,0.5-0.5,0.5h-6c-0.276,0-0.5-0.224-0.5-0.5v-4  c0-0.276,0.224-0.5,0.5-0.5h6c0.276,0,0.5,0.224,0.5,0.5V21z"/><text x="0" y="55" fill="#000000" font-size="5px" font-weight="bold" font-family="'Helvetica Neue', Helvetica, Arial-Unicode, Arial, Sans-serif">Created by Katrine Kolström</text><text x="0" y="60" fill="#000000" font-size="5px" font-weight="bold" font-family="'Helvetica Neue', Helvetica, Arial-Unicode, Arial, Sans-serif">from the Noun Project</text></svg>